HIERARCHY
ROOT Hips
{
	OFFSET 0.000000 0.000000 0.000000
	CHANNELS 6 Xposition Yposition Zposition Xrotation Yrotation Zrotation
	JOINT LeftUpLeg
	{
		OFFSET 0.083882 0.000000 0.000000
		CHANNELS 3 Xrotation Yrotation Zrotation
		JOINT LeftLeg
		{
			OFFSET 0.000000 -0.455173 0.000000
			CHANNELS 3 Xrotation Yrotation Zrotation
			JOINT LeftFoot
			{
				OFFSET 0.000000 -0.420169 0.000000
				CHANNELS 3 Xrotation Yrotation Zrotation
				JOINT LeftToeBase
				{
					OFFSET 0.000000 -0.042552 0.158805
					CHANNELS 3 Xrotation Yrotation Zrotation
					End Site
					{
						OFFSET 0.000000 0.000000 0.079842
					}
				}
			}
		}
	}
	JOINT RightUpLeg
	{
		OFFSET -0.083882 0.000000 0.000000
		CHANNELS 3 Xrotation Yrotation Zrotation
		JOINT RightLeg
		{
			OFFSET 0.000000 -0.455173 0.000000
			CHANNELS 3 Xrotation Yrotation Zrotation
			JOINT RightFoot
			{
				OFFSET 0.000000 -0.420169 0.000000
				CHANNELS 3 Xrotation Yrotation Zrotation
				JOINT RightToeBase
				{
					OFFSET 0.000000 -0.042552 0.158805
					CHANNELS 3 Xrotation Yrotation Zrotation
					End Site
					{
						OFFSET 0.000000 0.000000 0.079842
					}
				}
			}
		}
	}
	JOINT Spine
	{
		OFFSET 0.000000 0.001065 0.000000
		CHANNELS 3 Xrotation Yrotation Zrotation
		JOINT Spine1
		{
			OFFSET 0.000000 0.224715 0.000000
			CHANNELS 3 Xrotation Yrotation Zrotation
			JOINT Neck
			{
				OFFSET 0.000000 0.169125 0.000000
				CHANNELS 3 Xrotation Yrotation Zrotation
				JOINT Head
				{
					OFFSET 0.000000 0.232765 0.000000
					CHANNELS 3 Xrotation Yrotation Zrotation
					End Site
					{
						OFFSET 0.000000 0.122425 0.000000
					}
				}
			}
			JOINT LeftShoulder
			{
				OFFSET 0.000000 0.169125 0.000000
				CHANNELS 3 Xrotation Yrotation Zrotation
				JOINT LeftArm
				{
					OFFSET 0.201409 -0.000001 0.000000
					CHANNELS 3 Xrotation Yrotation Zrotation
					JOINT LeftForeArm
					{
						OFFSET 0.290287 -0.000001 0.000000
						CHANNELS 3 Xrotation Yrotation Zrotation
						JOINT LeftHand
						{
							OFFSET 0.274683 -0.000001 0.000000
							CHANNELS 3 Xrotation Yrotation Zrotation
							JOINT LeftHandThumb
							{
								OFFSET 0.000000 0.000000 0.000000
								CHANNELS 3 Xrotation Yrotation Zrotation
								End Site
								{
									OFFSET 0.000000 0.000000 0.106456
								}
							}
							JOINT L_Wrist_End
							{
								OFFSET 0.106456 -0.000000 0.000000
								CHANNELS 3 Xrotation Yrotation Zrotation
								End Site
								{
									OFFSET 0.000000 0.002704 0.000000
								}
							}
						}
					}
				}
			}
			JOINT RightShoulder
			{
				OFFSET 0.000000 0.169125 0.000000
				CHANNELS 3 Xrotation Yrotation Zrotation
				JOINT RightArm
				{
					OFFSET -0.201409 -0.000001 0.000000
					CHANNELS 3 Xrotation Yrotation Zrotation
					JOINT RightForeArm
					{
						OFFSET -0.290287 -0.000001 0.000000
						CHANNELS 3 Xrotation Yrotation Zrotation
						JOINT RightHand
						{
							OFFSET -0.274683 -0.000001 0.000000
							CHANNELS 3 Xrotation Yrotation Zrotation
							JOINT RightHandThumb
							{
								OFFSET 0.000000 0.000000 0.000000
								CHANNELS 3 Xrotation Yrotation Zrotation
								End Site
								{
									OFFSET 0.000000 0.000000 0.106456
								}
							}
							JOINT R_Wrist_End
							{
								OFFSET -0.145845 -0.000001 0.000000
								CHANNELS 3 Xrotation Yrotation Zrotation
								End Site
								{
									OFFSET 0.000000 0.002704 0.000000
								}
							}
						}
					}
				}
			}
		}
	}
}
MOTION
Frames: 14
Frame Time: 0.008333
-1.529193 0.960285 -0.238103 -88.813148 -89.781723 -67.099355 -75.333906 -4.853103 63.323203 18.359893 0.000001 -0.000000 14.885398 -5.568906 -29.942504 -2.109999 -0.000002 0.000001 -4.725499 -7.744898 -18.690703 16.954495 -0.000000 0.000000 -18.090499 -16.576698 -12.527303 3.451799 -0.000000 -0.000000 -1.838800 -0.399600 3.801600 2.900899 -6.052599 -28.178700 36.574796 34.188396 -7.230594 -25.412596 -17.201101 -13.089002 12.180300 -9.371801 27.736497 -56.412793 24.985103 -3.684201 0.002865 -94.114495 0.003095 -10.001501 6.504302 28.819700 0.000001 0.000000 0.000001 0.000001 0.000000 0.000001 25.058297 -9.756494 -24.225498 7.970001 -25.401902 56.112002 -0.000295 50.451097 0.000100 -7.307598 23.211102 11.715097 -0.000000 -0.000001 -0.000001 -0.000000 -0.000001 -0.000003 
-1.530669 0.960247 -0.239474 -118.268687 -90.151305 -96.451376 -74.438899 -2.233307 63.740603 20.809196 0.000001 0.000001 16.866295 -7.626204 -30.299703 -1.761300 -0.000004 -0.000004 -5.068600 -8.283100 -18.903600 16.767295 0.000001 0.000000 -18.096494 -15.711901 -12.000901 3.354600 -0.000001 0.000000 -1.966999 -0.707200 3.409798 2.662899 -5.975000 -27.319608 36.094688 33.949004 -7.109294 -25.102695 -16.869299 -13.482603 12.277097 -9.305599 27.691901 -55.109996 25.678103 -5.156101 0.001774 -96.715697 0.002001 -9.210298 7.801600 25.972600 0.000001 0.000000 -0.000001 0.000001 0.000000 -0.000001 25.323495 -10.076096 -24.048999 9.213205 -27.235699 58.501103 -0.000194 48.913505 0.000099 -6.437800 22.694101 11.546103 0.000000 -0.000000 -0.000003 0.000000 0.000000 -0.000001 
-1.532184 0.959963 -0.240943 -88.715551 -90.451888 -67.037542 -73.836408 0.375794 64.341297 23.372796 -0.000000 -0.000001 18.329998 -8.898901 -31.247999 -1.640101 -0.000002 0.000002 -5.274500 -8.594299 -18.813003 16.594397 -0.000001 0.000000 -18.103299 -15.004800 -11.563101 3.401301 -0.000001 -0.000000 -2.052500 -0.934500 3.198799 2.443300 -5.941000 -26.511601 35.523588 33.631500 -6.808294 -24.785997 -16.311602 -13.800203 12.391800 -9.158202 27.658494 -53.787303 26.291606 -6.582401 0.001291 -99.264095 0.001493 -8.602798 9.036402 22.815298 0.000001 -0.000000 0.000001 0.000001 -0.000000 0.000001 25.706293 -10.331395 -23.789002 10.146097 -28.713398 60.810308 -0.000196 47.118101 0.000100 -7.269697 22.239898 12.012300 0.000000 0.000000 -0.000005 0.000001 0.000000 -0.000002 
-1.533401 0.959436 -0.241870 -77.473996 -90.768494 -55.902896 -73.392698 3.113791 64.907397 26.120797 -0.000001 0.000000 18.631895 -8.983500 -32.597795 -1.599399 -0.000000 -0.000001 -5.594199 -8.816100 -18.809200 16.701201 -0.000001 -0.000000 -18.215199 -14.271600 -10.870605 3.337201 0.000002 -0.000000 -2.128600 -1.245900 2.695002 2.402899 -5.829300 -25.100701 35.142693 33.456100 -6.870898 -24.628597 -16.013701 -14.201303 12.355099 -9.018002 27.180096 -52.448896 26.736407 -8.087701 0.000988 -101.717199 0.001195 -8.209000 9.993900 19.951196 0.000000 0.000000 -0.000001 0.000000 0.000000 0.000000 25.766095 -10.503496 -23.749097 11.159298 -30.042901 62.940200 -0.000196 45.329203 0.000099 -9.535398 21.582100 13.331398 -0.000000 -0.000001 -0.000000 -0.000001 -0.000000 -0.000001 
-1.534734 0.958906 -0.242576 -70.724157 -91.034899 -49.292960 -72.824597 5.887197 65.368797 28.840201 -0.000002 0.000001 17.817001 -8.095911 -33.548998 -1.739605 -0.000002 -0.000000 -5.869800 -9.059201 -18.774602 16.866997 -0.000000 0.000000 -18.316897 -13.622002 -10.208303 3.180201 -0.000001 0.000000 -2.202899 -1.523000 2.292499 2.436798 -5.715300 -23.890506 34.678793 33.088804 -6.752598 -24.481997 -15.566800 -14.380501 12.354799 -8.922102 26.715798 -51.141502 27.007801 -9.494200 0.000787 -104.040296 0.001099 -8.158399 10.802000 17.509992 -0.000001 -0.000001 0.000001 -0.000001 -0.000000 -0.000001 25.813797 -10.772493 -23.627699 11.943792 -30.862988 65.010103 -0.000197 43.309400 0.000098 -12.578096 21.196100 14.976498 0.000002 -0.000000 -0.000001 0.000002 0.000000 -0.000000 
-1.535921 0.958476 -0.243019 -66.479064 -91.334287 -45.278273 -72.021900 8.588194 65.696202 31.416896 -0.000001 0.000000 16.145597 -6.521005 -34.121805 -1.603995 -0.000005 0.000002 -6.047200 -9.023001 -18.599899 16.962894 0.000001 -0.000001 -18.327995 -13.214299 -9.883802 3.067701 -0.000003 -0.000001 -2.282399 -1.706100 2.232401 2.355399 -5.719700 -23.255908 34.202497 32.815299 -6.439995 -24.389096 -15.019700 -14.327502 12.441699 -8.819903 26.567493 -49.716998 27.338003 -10.805902 0.000695 -106.180898 0.001007 -8.567899 11.099004 15.689001 -0.000000 0.000000 0.000003 0.000000 0.000000 -0.000000 26.025300 -10.981394 -23.333994 12.422799 -31.080800 67.052302 -0.000198 41.073305 0.000101 -15.892996 21.151899 16.517897 0.000000 0.000001 -0.000000 -0.000001 0.000001 -0.000002 
-1.537094 0.958027 -0.243111 -64.918517 -91.488881 -43.813519 -70.992501 11.447292 65.662208 33.810895 -0.000001 -0.000002 14.069593 -4.561902 -33.883305 -1.691608 0.000001 -0.000000 -6.240101 -9.169701 -18.611598 17.179696 0.000000 -0.000000 -18.426797 -12.782899 -9.483902 2.950701 0.000001 0.000000 -2.403799 -1.880800 1.947599 2.530099 -5.635100 -22.363504 33.864197 32.439403 -6.250196 -24.408094 -14.680901 -14.197303 12.586299 -8.809104 26.218598 -48.405896 27.306306 -12.326501 0.000584 -108.041196 0.000895 -8.900999 11.177204 14.905892 0.000003 0.000000 -0.000002 0.000002 -0.000000 -0.000000 26.003698 -11.457194 -23.240497 12.778986 -31.056300 69.161901 -0.000198 38.646901 0.000099 -19.308400 21.069105 18.256595 0.000002 0.000002 -0.000003 0.000002 0.000002 -0.000001 
-1.537970 0.957527 -0.242957 -68.183238 -91.563904 -47.217132 -69.623800 14.153498 65.189497 36.027189 0.000001 0.000002 11.884404 -2.366704 -33.464901 -1.452097 -0.000000 0.000000 -6.439200 -9.323801 -18.590600 17.441298 0.000001 -0.000000 -18.548997 -12.452898 -9.107803 2.836901 -0.000001 0.000000 -2.400699 -2.072200 1.842000 2.424500 -5.612501 -21.742705 33.573990 32.099997 -6.027195 -24.346599 -14.399500 -13.857701 12.737996 -8.842102 26.010796 -46.938105 27.259606 -13.840403 0.000592 -109.714299 0.000800 -9.169000 11.171803 14.270097 0.000001 0.000000 0.000000 0.000000 -0.000001 0.000002 26.016295 -11.912496 -23.013501 13.090893 -30.529098 71.079702 -0.000195 36.253712 0.000098 -23.541493 20.950803 20.038892 -0.000000 0.000001 -0.000002 -0.000000 0.000002 -0.000003 
-1.539009 0.957005 -0.242619 -72.804516 -91.613088 -51.963219 -67.955697 16.829096 64.381698 37.991496 0.000000 0.000001 10.136900 -0.206502 -33.137206 -1.540098 0.000005 0.000001 -6.509200 -9.323201 -18.560498 17.608496 -0.000001 -0.000000 -18.682394 -12.342096 -8.673502 2.775001 0.000002 0.000000 -2.496400 -2.216700 1.776301 2.425798 -5.570700 -21.221000 33.284495 31.693000 -5.757598 -24.197796 -14.166201 -13.447304 13.028697 -8.909302 25.887098 -45.634905 27.124303 -15.394002 0.000492 -111.164901 0.000804 -9.063799 11.167100 13.887597 -0.000000 -0.000000 -0.000000 0.000000 -0.000001 -0.000000 25.993501 -12.351196 -22.727697 13.390795 -29.781800 72.920302 -0.000098 33.875699 0.000001 -27.132192 20.378402 22.165398 -0.000002 0.000001 -0.000000 -0.000003 0.000002 -0.000002 
-1.540023 0.956551 -0.242003 -79.818014 -91.626086 -58.992214 -65.953802 19.553588 63.104698 39.584894 0.000000 -0.000002 9.324201 1.471297 -33.075597 -1.598802 0.000004 0.000000 -6.478200 -9.174700 -18.626800 17.706895 -0.000000 0.000000 -18.850094 -12.441297 -8.174401 2.799301 -0.000000 0.000000 -2.612199 -2.374300 1.631599 2.448398 -5.512200 -20.750000 32.971591 31.125001 -5.428094 -23.960797 -13.850601 -13.040301 13.334902 -9.068599 25.777397 -44.455799 26.951308 -16.897796 0.000490 -112.469303 0.000802 -8.452499 11.338803 13.389102 -0.000000 0.000001 -0.000001 -0.000000 0.000000 0.000000 25.894398 -12.682897 -22.322899 13.698598 -29.015904 74.559506 -0.000093 31.719801 -0.000003 -30.414286 19.255499 24.359595 0.000001 0.000001 0.000000 0.000002 0.000002 -0.000001 
-1.541061 0.956094 -0.241048 -89.805130 -91.640416 -68.994029 -63.646203 22.141397 61.407499 40.890389 0.000001 -0.000000 9.423799 2.421900 -33.517203 -1.422900 0.000003 0.000001 -6.396800 -8.987801 -18.690896 17.782995 -0.000000 0.000000 -19.015498 -12.650298 -7.891502 2.742599 0.000002 0.000000 -2.786500 -2.562200 1.511899 2.489299 -5.493099 -20.324000 32.645097 30.560302 -5.112598 -23.525395 -13.598700 -12.554203 13.584697 -9.224202 25.689699 -43.302696 26.703403 -18.476893 0.000489 -113.551997 0.000706 -7.587600 11.361598 12.930898 -0.000000 0.000000 -0.000001 -0.000001 -0.000000 -0.000001 25.699700 -12.898995 -21.924294 14.072596 -27.933698 76.087003 -0.000098 29.651098 -0.000001 -32.732797 18.507900 25.507302 -0.000002 0.000001 0.000001 -0.000003 0.000001 -0.000000 
-1.542051 0.955491 -0.239861 -102.640668 -91.704087 -81.902779 -60.979908 24.495097 59.257499 41.792999 0.000000 -0.000002 10.207999 2.417398 -35.204906 -1.672602 0.000001 0.000003 -6.235499 -8.761999 -18.678303 17.789899 -0.000001 -0.000000 -19.224600 -13.031895 -7.524101 2.809201 0.000001 -0.000000 -3.015800 -2.787600 1.413899 2.584199 -5.533900 -19.856596 32.279699 30.040101 -4.821997 -22.954102 -13.425602 -12.063900 13.779499 -9.369803 25.594597 -42.248996 26.419206 -20.048996 0.000497 -114.450400 0.000707 -6.365300 11.460104 12.468901 0.000001 0.000002 -0.000002 0.000000 0.000001 -0.000002 25.528602 -13.030796 -21.564593 14.283899 -26.868398 77.526001 -0.000100 27.752198 0.000002 -34.712292 17.649400 27.031597 -0.000000 0.000004 -0.000002 -0.000001 0.000000 -0.000002 
-1.543100 0.954769 -0.238474 -116.931541 -91.858401 -96.305742 -57.827503 26.544396 56.565202 42.321901 0.000002 0.000001 10.923398 1.720595 -37.183505 -1.493203 0.000001 -0.000000 -5.977100 -8.516400 -18.612400 17.702495 -0.000000 -0.000000 -19.494000 -13.598699 -7.076302 2.972101 0.000001 -0.000000 -3.286899 -3.028700 1.305602 2.697100 -5.588401 -19.313202 32.016700 29.543003 -4.626199 -22.347896 -13.458202 -11.532501 13.949000 -9.515905 25.464695 -41.249394 26.009304 -21.665099 0.000397 -115.101405 0.000706 -4.996601 11.468597 12.192302 0.000001 -0.000001 0.000000 0.000001 0.000001 0.000002 25.327897 -13.124296 -21.326596 14.472700 -25.786099 78.963605 -0.000101 26.063896 0.000000 -35.548488 17.028898 28.022301 -0.000000 0.000000 0.000003 -0.000003 -0.000003 -0.000000 
-1.544108 0.953914 -0.236908 -130.487568 -92.135393 -110.044265 -54.240397 28.224698 53.361901 42.387997 -0.000001 0.000002 11.571400 0.180898 -39.743399 -1.660300 0.000000 -0.000000 -5.712298 -8.344200 -18.484300 17.654499 0.000000 0.000000 -19.707495 -14.099195 -6.899201 3.007200 -0.000000 0.000000 -3.560899 -3.267700 1.226102 2.837699 -5.648300 -18.715500 31.647992 28.951498 -4.349198 -21.578495 -13.423000 -11.054302 14.065999 -9.642601 25.321697 -40.295592 25.449801 -23.342199 0.000396 -115.505302 0.000705 -3.751099 11.343303 12.217099 -0.000002 0.000001 0.000000 -0.000001 0.000001 0.000002 25.135400 -13.119997 -21.109395 14.820600 -24.595697 80.384510 -0.000094 24.801100 -0.000002 -35.500598 16.713299 28.485801 -0.000001 0.000000 0.000002 0.000001 0.000000 0.000000 
